HIERARCHY
ROOT hip
{
	OFFSET 0.000000 0.000000 0.000000 
	CHANNELS 6 Xposition Yposition Zposition Xrotation Zrotation Yrotation
	JOINT abdomen
	{
		OFFSET 0.000000 3.402643 0.000000 
		CHANNELS 3 Xrotation Zrotation Yrotation
		JOINT chest
		{
			OFFSET 0.000000 8.438565 -0.680529 
			CHANNELS 3 Xrotation Zrotation Yrotation
			JOINT neck
			{
				OFFSET 0.000000 10.207942 -0.272212 
				CHANNELS 3 Xrotation Zrotation Yrotation
				JOINT head
				{
					OFFSET 0.000000 3.130431 0.000000 
					CHANNELS 3 Xrotation Zrotation Yrotation
					End Site
					{
						OFFSET 0.000000 3.130435 0.000000 
					}
				}
			}
			JOINT lCollar
			{
				OFFSET 3.470700 6.669187 -0.816635 
				CHANNELS 3 Yrotation Zrotation Xrotation
				JOINT lShldr
				{
					OFFSET 3.198488 0.000000 0.000000 
					CHANNELS 3 Zrotation Yrotation Xrotation
					JOINT lForeArm
					{
						OFFSET 10.139888 0.000000 0.000000 
						CHANNELS 3 Yrotation Zrotation Xrotation
						JOINT lHand
						{
							OFFSET 8.370511 0.000000 0.000000 
							CHANNELS 3 Zrotation Yrotation Xrotation
							End Site
							{
								OFFSET 4.083176 0.000000 0.000000 
							}
						}
					}
				}
			}
			JOINT rCollar
			{
				OFFSET -3.470700 6.669187 -0.816635 
				CHANNELS 3 Yrotation Zrotation Xrotation
				JOINT rShldr
				{
					OFFSET -3.198488 0.000000 0.000000 
					CHANNELS 3 Zrotation Yrotation Xrotation
					JOINT rForeArm
					{
						OFFSET -10.139888 0.000000 0.000000 
						CHANNELS 3 Yrotation Zrotation Xrotation
						JOINT rHand
						{
							OFFSET -8.370511 0.000000 0.000000 
							CHANNELS 3 Zrotation Yrotation Xrotation
							End Site
							{
								OFFSET -4.083176 0.000000 0.000000 
							}
						}
					}
				}
			}
		}
	}
	JOINT lThigh
	{
		OFFSET 5.308129 -1.633274 1.361059 
		CHANNELS 3 Xrotation Zrotation Yrotation
		JOINT lShin
		{
			OFFSET -2.041588 -20.007561 0.000000 
			CHANNELS 3 Xrotation Zrotation Yrotation
			JOINT lFoot
			{
				OFFSET 0.000000 -19.190928 -1.224953 
				CHANNELS 3 Xrotation Yrotation Zrotation
				End Site
				{
					OFFSET 0.000000 -2.449906 4.627600 
				}
			}
		}
	}
	JOINT rThigh
	{
		OFFSET -5.308129 -1.633274 1.361059 
		CHANNELS 3 Xrotation Zrotation Yrotation
		JOINT rShin
		{
			OFFSET 2.041588 -20.007561 0.000000 
			CHANNELS 3 Xrotation Zrotation Yrotation
			JOINT rFoot
			{
				OFFSET 0.000000 -19.190928 -1.224953 
				CHANNELS 3 Xrotation Yrotation Zrotation
				End Site
				{
					OFFSET 0.000000 -2.449906 4.627600 
				}
			}
		}
	}
}
MOTION
Frames: 15
Frame Time: 0.016667
-1.256156 53.877571 23.002296 -7.209293 -1.350747 -5.685232 30.718765 3.533495 0.304934 -0.462028 2.176862 -2.344806 -9.981109 -0.764264 0.105753 6.921543 -5.378234 1.794800 -4.855703 -9.481135 -0.501592 -66.244926 5.069503 -10.946589 -30.260067 -5.000000 26.780621 -21.230709 3.181788 10.106778 11.872224 10.006572 -0.530286 68.321701 -11.043766 -22.389996 29.751448 5.000000 28.648819 18.216139 -15.471820 5.924330 9.704752 15.895619 5.886735 1.723828 -3.947419 -0.209965 -2.331460 8.738366 -10.925535 9.301373 -7.116440 -7.024484 0.915880 3.008961 0.111959 0.713914 -9.742499 6.521688 
-1.212214 53.881989 23.177933 -7.193713 -1.302071 -5.724280 30.640297 3.480847 0.273841 -0.488669 2.108551 -2.364352 -10.117741 -0.715985 0.098449 6.890540 -5.328671 2.039700 -4.817164 -9.539653 -0.504613 -66.199547 5.117349 -10.957135 -30.651690 -5.000000 26.881933 -21.547161 3.256384 10.239799 11.814278 10.074847 -0.533818 68.055443 -11.216965 -22.385279 29.516321 5.000000 29.375530 18.495852 -15.111172 4.836387 10.054801 15.748439 5.889137 1.431324 -3.938454 -0.198561 -2.390765 8.818124 -10.869948 9.547341 -7.205291 -7.056220 0.828738 2.953115 0.106927 0.626419 -9.767688 6.673985 
-1.181550 53.885529 23.338572 -7.129796 -1.253443 -5.743586 30.532848 3.401503 0.261701 -0.535698 2.069523 -2.344481 -10.176225 -0.648395 0.088223 6.896549 -5.318021 2.294322 -4.788394 -9.598172 -0.507634 -66.228127 5.210397 -11.034064 -30.860615 -5.000000 27.001057 -21.582478 3.098477 10.701725 11.832657 10.135360 -0.527433 67.845261 -11.424656 -22.444265 29.242136 5.000000 29.995438 18.710968 -14.720344 3.760207 10.368761 15.622840 6.020331 1.101308 -3.962537 -0.184106 -2.496720 8.815802 -10.813397 9.719390 -7.290411 -7.118432 0.741508 2.905534 0.072593 0.560350 -9.696649 6.800635 
-1.159733 53.888477 23.489220 -7.028036 -1.195123 -5.753345 30.414463 3.310318 0.233741 -0.603085 2.059780 -2.305433 -10.176113 -0.571149 0.076536 6.930602 -5.316985 2.559572 -4.779159 -9.656687 -0.510654 -66.309891 5.344263 -11.158175 -30.954838 -5.000000 27.142076 -21.455347 2.789499 11.354877 11.911149 10.174369 -0.529451 67.670097 -11.658339 -22.545067 28.943207 5.000000 30.546030 18.869923 -14.312208 2.696312 10.660135 15.504611 6.171203 0.719591 -4.000314 -0.175546 -2.611092 8.770277 -10.763009 9.839869 -7.360750 -7.197838 0.672492 2.872005 0.049135 0.452998 -9.634719 6.890487 
-1.142118 53.891136 23.640791 -6.955592 -1.136805 -5.762906 30.297161 3.219683 0.226795 -0.659840 2.030523 -2.256626 -10.156466 -0.474592 0.061928 6.961515 -5.305903 2.863717 -4.778027 -9.716015 -0.504081 -66.411720 5.477904 -11.292550 -30.977831 -5.000000 27.316204 -21.342161 2.451088 12.016511 12.000940 10.191842 -0.539861 67.531975 -11.877758 -22.652685 28.650841 5.000000 31.030270 18.983255 -13.954173 1.787639 10.943938 15.397326 6.332212 0.369119 -4.018874 -0.159412 -2.676986 8.777246 -10.693565 10.007131 -7.420253 -7.226261 0.565490 2.834970 0.013559 0.382308 -9.646657 6.965789 
-1.141283 53.892609 23.796076 -6.938626 -1.107618 -5.782431 30.210712 3.111405 0.264429 -0.686815 1.981739 -2.198054 -10.078234 -0.358723 0.044397 6.997746 -5.244958 3.353518 -4.778027 -9.716015 -0.504081 -66.543083 5.600248 -11.444036 -30.769976 -5.000000 27.614271 -21.257189 2.016021 12.670485 12.118127 10.191823 -0.539857 67.515045 -12.061439 -22.789030 28.318558 5.000000 31.317579 19.003595 -13.764016 1.456557 11.278439 15.332448 6.562742 0.086842 -4.044978 -0.138274 -2.614419 8.569668 -10.664727 10.261333 -7.479458 -7.066375 0.380204 2.836625 0.040950 0.343913 -9.833041 7.039730 
-1.140449 53.894085 23.951357 -6.922666 -1.068717 -5.801955 30.134678 3.007540 0.315305 -0.713261 1.923199 -2.129720 -10.009798 -0.233199 0.025406 7.025239 -5.183689 3.843327 -4.778114 -9.725767 -0.504584 -66.684906 5.723874 -11.605075 -30.552580 -5.000000 27.912737 -21.172754 1.580157 13.330955 12.235221 10.182053 -0.539349 67.498268 -12.245280 -22.925220 27.996000 5.000000 31.602032 19.022514 -13.564909 1.128518 11.595187 15.238421 6.778659 -0.206949 -4.059941 -0.087222 -2.521316 8.428115 -10.608537 10.500163 -7.524529 -6.924929 0.214785 2.825187 0.069781 0.342696 -10.054978 7.102776 
-1.152212 53.896740 24.099951 -6.852988 -1.000863 -5.713892 30.006893 2.892037 0.286738 -0.750506 1.864633 -2.109875 -10.078154 -0.223543 0.023945 7.161278 -5.104665 4.019281 -4.731492 -9.783475 -0.517195 -66.670471 5.858100 -11.728851 -30.180937 -5.000000 28.493418 -21.028198 1.106666 13.861625 12.282334 10.184121 -0.529955 67.565300 -12.337180 -22.986124 27.693012 5.000000 31.634922 18.820345 -13.693351 1.400475 11.770157 15.159624 6.846621 -0.372668 -4.028645 -0.075701 -2.649998 8.242198 -10.626100 10.731568 -7.577882 -6.853006 0.029175 2.813810 0.058355 0.338569 -10.251796 7.152942 
-1.167122 53.899689 24.246874 -6.776824 -0.903890 -5.586782 29.879522 2.763041 0.263790 -0.797537 1.806066 -2.090357 -10.195344 -0.233199 0.025406 7.324907 -5.016383 4.116567 -4.683385 -9.861501 -0.521220 -66.617798 6.009408 -11.843572 -29.758223 -5.000000 29.148214 -20.880623 0.626191 14.357984 12.301958 10.193872 -0.530460 67.656364 -12.419103 -23.032070 27.389692 5.000000 31.600601 18.569468 -13.906619 1.817883 11.900764 15.075175 6.879435 -0.508637 -3.974509 -0.066922 -2.836313 8.076788 -10.697024 10.929565 -7.641989 -6.824388 -0.146402 2.839609 0.047341 0.339949 -10.449606 7.235333 
-1.188372 53.902050 24.391047 -6.699075 -0.826380 -5.410860 29.741032 2.637327 0.209827 -0.874429 1.757253 -2.090362 -10.283227 -0.213887 0.022484 7.535023 -4.918121 4.253626 -4.672553 -9.930562 -0.515153 -66.570442 6.211090 -12.000889 -29.325584 -5.000000 29.764097 -20.881981 0.232567 14.987184 12.321673 10.213378 -0.531468 67.726067 -12.492143 -23.057920 27.090889 5.000000 31.503281 18.443312 -14.194061 2.321652 11.977889 15.005439 6.872410 -0.587622 -3.924196 -0.062410 -2.949786 7.942785 -10.747003 11.170618 -7.666079 -6.906712 -0.320432 2.845036 0.036212 0.377114 -10.613386 7.260225 
-1.219115 53.903530 24.531086 -6.640782 -0.758660 -5.137172 29.621677 2.515426 0.146048 -1.001275 1.718181 -2.148946 -10.361329 -0.136641 0.010797 7.826910 -4.819357 4.468527 -4.751127 -9.979325 -0.517668 -66.532852 6.500579 -12.237541 -28.873348 -5.000000 30.296373 -21.106564 -0.018263 15.803495 12.341760 10.271891 -0.534494 67.764267 -12.587297 -23.052399 26.813944 5.000000 31.318003 18.500729 -14.630412 2.941211 11.999657 14.979339 6.739108 -0.606517 -3.851944 -0.052928 -2.990979 7.804323 -10.812988 11.432849 -7.645725 -7.151252 -0.497666 2.829220 0.015730 0.425911 -10.644031 7.294004 
-1.249864 53.905006 24.671129 -6.581722 -0.690853 -4.873516 29.492323 2.397627 0.073666 -1.118315 1.679109 -2.207530 -10.439448 -0.069051 0.000559 8.119536 -4.720582 4.683443 -4.829703 -10.028087 -0.520183 -66.494789 6.795599 -12.462058 -28.409197 -5.000000 30.841835 -21.352663 -0.269027 16.624119 12.361757 10.320651 -0.537015 67.801140 -12.669741 -23.039675 26.532223 5.000000 31.137962 18.560717 -15.070296 3.557903 12.020463 14.941392 6.603849 -0.615788 -3.770895 -0.034608 -3.025215 7.721342 -10.856958 11.708480 -7.637009 -7.377488 -0.691284 2.837790 -0.026002 0.468923 -10.668987 7.341016 
-1.280423 53.906475 24.808228 -6.646126 -0.749321 -4.795405 29.466475 2.356902 0.174304 -0.812478 1.669419 -2.061088 -10.703142 -0.115869 0.017531 7.911674 -4.663144 4.535862 -4.763249 -10.046779 -0.530772 -66.478012 6.618515 -12.581448 -27.814182 -5.000000 31.449921 -21.554052 -0.409222 17.391657 12.097713 10.281644 -0.534998 67.761131 -12.324011 -22.860193 26.188953 5.000000 31.064417 18.250795 -15.301176 4.216647 12.273050 15.037454 6.498223 -0.674580 -3.781431 -0.059488 -2.985074 7.885413 -10.918258 12.015701 -7.526572 -7.517331 -0.779468 2.785291 -0.000928 0.485568 -10.592230 7.526835 
-1.310982 53.907955 24.945326 -6.710550 -0.807790 -4.727055 29.440212 2.329579 0.269474 -0.506391 1.659729 -1.904601 -10.966832 -0.164147 0.024835 7.703513 -4.605651 4.389076 -4.704840 -10.066294 -0.531778 -66.471565 6.452195 -12.707051 -27.212315 -5.000000 32.063347 -21.771267 -0.537687 18.168562 11.843434 10.242634 -0.532981 67.728607 -11.970737 -22.674263 25.845196 5.000000 30.988216 17.948389 -15.518832 4.877781 12.519254 15.136995 6.392402 -0.712943 -3.784360 -0.056647 -2.922236 8.069901 -10.939939 12.331261 -7.430158 -7.638265 -0.876401 2.737054 0.033296 0.494240 -10.515692 7.713518 
-1.342036 53.907654 25.076176 -6.748125 -0.846861 -4.609881 29.393160 2.286411 0.326351 -0.318444 1.640247 -1.806975 -11.162175 -0.222082 0.033601 7.627983 -4.567410 4.270707 -4.656476 -10.115064 -0.534291 -66.436195 6.414036 -12.884427 -26.669857 -5.000000 32.626873 -21.967081 -0.623067 18.814686 11.687000 10.223130 -0.531972 67.696655 -11.776101 -22.572487 25.536150 5.000000 31.002598 17.567595 -15.734024 5.265913 12.743352 15.215027 6.272199 -0.820092 -3.783193 -0.069218 -2.998361 8.163018 -10.973110 12.604928 -7.352610 -7.673215 -0.965216 2.757919 -0.002011 0.498343 -10.552220 7.784965 
